<svg width="19" height="17" viewBox="0 0 19 17" fill="none" xmlns="http://www.w3.org/2000/svg">
<path d="M16.8261 2.09319C16.4004 1.66736 15.8951 1.32956 15.3389 1.09909C14.7827 0.868623 14.1865 0.75 13.5844 0.75C12.9823 0.75 12.3862 0.868623 11.8299 1.09909C11.2737 1.32956 10.7684 1.66736 10.3427 2.09319L9.45941 2.97652L8.57607 2.09319C7.71633 1.23344 6.55027 0.750446 5.33441 0.750446C4.11855 0.750446 2.95249 1.23344 2.09274 2.09319C1.233 2.95293 0.75 4.11899 0.75 5.33485C0.75 6.55072 1.233 7.71678 2.09274 8.57652L2.97607 9.45985L9.45941 15.9432L15.9427 9.45985L16.8261 8.57652C17.2519 8.15089 17.5897 7.64553 17.8202 7.08932C18.0506 6.5331 18.1693 5.93693 18.1693 5.33485C18.1693 4.73278 18.0506 4.13661 17.8202 3.58039C17.5897 3.02418 17.2519 2.51882 16.8261 2.09319Z" stroke="#242424" stroke-width="1.5" stroke-linecap="round" stroke-linejoin="round"/>
</svg>
