<svg width="14" height="15" viewBox="0 0 14 15" fill="none" xmlns="http://www.w3.org/2000/svg">
<path d="M9.31669 3.31669V2.78336C9.31669 2.03662 9.31669 1.66325 9.17137 1.37804C9.04354 1.12715 8.83956 0.92318 8.58868 0.795349C8.30346 0.650024 7.93009 0.650024 7.18336 0.650024H6.11669C5.36995 0.650024 4.99659 0.650024 4.71137 0.795349C4.46049 0.92318 4.25651 1.12715 4.12868 1.37804C3.98336 1.66325 3.98336 2.03662 3.98336 2.78336V3.31669M5.31669 6.98336V10.3167M7.98336 6.98336V10.3167M0.650024 3.31669H12.65M11.3167 3.31669V10.7834C11.3167 11.9035 11.3167 12.4635 11.0987 12.8913C10.907 13.2677 10.601 13.5736 10.2247 13.7654C9.79685 13.9834 9.2368 13.9834 8.11669 13.9834H5.18336C4.06325 13.9834 3.5032 13.9834 3.07538 13.7654C2.69905 13.5736 2.39309 13.2677 2.20134 12.8913C1.98336 12.4635 1.98336 11.9035 1.98336 10.7834V3.31669" stroke="#242424" stroke-width="1.3" stroke-linecap="round" stroke-linejoin="round"/>
</svg>
