<svg width="13" height="13" viewBox="0 0 13 13" fill="none" xmlns="http://www.w3.org/2000/svg">
<path d="M5.53283 0.690968C5.83218 -0.230342 7.13559 -0.230343 7.43494 0.690968L8.28 3.29178C8.41387 3.7038 8.79783 3.98276 9.23106 3.98276H11.9657C12.9344 3.98276 13.3372 5.22238 12.5535 5.79178L10.3411 7.39917C9.99063 7.65381 9.84397 8.10518 9.97784 8.5172L10.8229 11.118C11.1222 12.0393 10.0678 12.8055 9.28406 12.2361L7.07167 10.6287C6.72118 10.374 6.24659 10.374 5.8961 10.6287L3.68372 12.2361C2.9 12.8055 1.84552 12.0393 2.14488 11.118L2.98993 8.51721C3.12381 8.10518 2.97715 7.65381 2.62666 7.39917L0.414278 5.79178C-0.369436 5.22238 0.033339 3.98276 1.00206 3.98276H3.73672C4.16994 3.98276 4.5539 3.7038 4.68777 3.29178L5.53283 0.690968Z" fill="#EEA10C"/>
</svg>
